name D:\school\WTK\thesis\model\3dpredictsim\Results\MidTarsalJoint\Fal_s1_bCst_PF_Natali2010_ls150_MT_k800_d020_MTP_T5_ig24.mot
datacolumns 128
datarows 4
range 1.67787271 1.71143016
endheader
time	pelvis_tilt	pelvis_list	pelvis_rotation	pelvis_tx	pelvis_ty	pelvis_tz	hip_flexion_l	hip_adduction_l	hip_rotation_l	hip_flexion_r	hip_adduction_r	hip_rotation_r	knee_angle_l	knee_angle_r	ankle_angle_l	ankle_angle_r	subtalar_angle_l	subtalar_angle_r	mtj_angle_l	mtj_angle_r	mtp_angle_l	mtp_angle_r	lumbar_extension	lumbar_bending	lumbar_rotation	arm_flex_l	arm_add_l	arm_rot_l	arm_flex_r	arm_add_r	arm_rot_r	elbow_flex_l	elbow_flex_r	pro_sup_l	pro_sup_r	glut_med1_l/activation	glut_med2_l/activation	glut_med3_l/activation	glut_min1_l/activation	glut_min2_l/activation	glut_min3_l/activation	semimem_l/activation	semiten_l/activation	bifemlh_l/activation	bifemsh_l/activation	sar_l/activation	add_long_l/activation	add_brev_l/activation	add_mag1_l/activation	add_mag2_l/activation	add_mag3_l/activation	tfl_l/activation	pect_l/activation	grac_l/activation	glut_max1_l/activation	glut_max2_l/activation	glut_max3_l/activation	iliacus_l/activation	psoas_l/activation	quad_fem_l/activation	gem_l/activation	peri_l/activation	rect_fem_l/activation	vas_med_l/activation	vas_int_l/activation	vas_lat_l/activation	med_gas_l/activation	lat_gas_l/activation	soleus_l/activation	tib_post_l/activation	flex_dig_l/activation	flex_hal_l/activation	tib_ant_l/activation	per_brev_l/activation	per_long_l/activation	per_tert_l/activation	ext_dig_l/activation	ext_hal_l/activation	ercspn_l/activation	intobl_l/activation	extobl_l/activation	glut_med1_r/activation	glut_med2_r/activation	glut_med3_r/activation	glut_min1_r/activation	glut_min2_r/activation	glut_min3_r/activation	semimem_r/activation	semiten_r/activation	bifemlh_r/activation	bifemsh_r/activation	sar_r/activation	add_long_r/activation	add_brev_r/activation	add_mag1_r/activation	add_mag2_r/activation	add_mag3_r/activation	tfl_r/activation	pect_r/activation	grac_r/activation	glut_max1_r/activation	glut_max2_r/activation	glut_max3_r/activation	iliacus_r/activation	psoas_r/activation	quad_fem_r/activation	gem_r/activation	peri_r/activation	rect_fem_r/activation	vas_med_r/activation	vas_int_r/activation	vas_lat_r/activation	med_gas_r/activation	lat_gas_r/activation	soleus_r/activation	tib_post_r/activation	flex_dig_r/activation	flex_hal_r/activation	tib_ant_r/activation	per_brev_r/activation	per_long_r/activation	per_tert_r/activation	ext_dig_r/activation	ext_hal_r/activation	ercspn_r/activation	intobl_r/activation	extobl_r/activation	
          1.67787271	         -2.92880475	          2.02280974	         -4.80190125	          2.09734088	          0.92040850	          0.00175704	         29.91955732	          3.16830494	         -2.18576005	        -17.31449027	         -0.84615312	          6.56820195	        -12.66233043	         -5.35595127	          6.18246269	         -0.24394114	         -4.09031009	          7.63516984	         -0.01816233	          2.27620950	         -0.88453570	         16.04487928	         -2.22887171	         -0.13161680	          1.91822842	         -4.18752862	        -13.45965671	          6.34057293	          5.03508503	        -13.45034235	         15.71464918	         17.48571049	         32.80632142	         86.51662706	         86.51662706	          0.07037914	          0.05000285	          0.05932005	          0.05000167	          0.05000195	          0.05001156	          0.11033674	          0.06116374	          0.21825616	          0.05000472	          0.05000372	          0.13116256	          0.16809047	          0.15401827	          0.14073234	          0.10938760	          0.05445416	          0.05005715	          0.09392720	          0.05932273	          0.08593441	          0.09821997	          0.05000035	          0.05000080	          0.17637371	          0.05000109	          0.05000442	          0.05000040	          0.05000838	          0.05002044	          0.05000318	          0.05000023	          0.05000055	          0.05000009	          0.05932039	          0.05001190	          0.05554236	          0.44149393	          0.26148760	          0.19993852	          0.08159966	          0.41884537	          0.14596317	          0.07038091	          0.13120408	          0.12114167	          0.31526382	          0.11755219	          0.08391989	          0.35455999	          0.23267651	          0.12827231	          0.05000228	          0.05000069	          0.05000058	          0.07287706	          0.11875229	          0.05000033	          0.05000026	          0.05000041	          0.05000115	          0.05000103	          0.35984397	          0.05000142	          0.05000119	          0.05007625	          0.05001087	          0.05000210	          0.44272409	          0.64970237	          0.05000071	          0.05001472	          0.06560594	          0.26455515	          0.05000098	          0.05000100	          0.05000097	          0.33782280	          0.46191755	          0.32838525	          0.29053115	          0.30584067	          0.37786210	          0.05000016	          0.05544326	          0.12535954	          0.05000077	          0.05000022	          0.05000078	          0.05000004	          0.05000004	          0.05000006	
          1.68905852	         -2.93006829	          2.11284755	         -5.10910709	          2.11381257	          0.91936763	          0.00156580	         29.37175803	          3.51276412	         -1.99526554	        -17.28597077	         -1.14244404	          6.36478414	        -12.20272345	         -7.08141696	          5.82847578	         -0.78023827	         -4.48512679	          8.56869290	         -0.00910219	          1.94493101	         -0.88144850	         17.31578660	         -2.05910377	         -0.32890041	          1.99080959	         -4.99990567	        -13.45871439	          6.04181545	          4.83957484	        -13.45656361	         16.10160948	         17.04331354	         33.96607777	         86.51662706	         86.51662706	          0.05932053	          0.05932081	          0.05000067	          0.05932157	          0.05932148	          0.05002701	          0.10630512	          0.05155317	          0.20880502	          0.05000069	          0.05000132	          0.13508266	          0.30731042	          0.14609581	          0.15068153	          0.11165861	          0.05000044	          0.08148941	          0.07917384	          0.05000207	          0.12834251	          0.15473566	          0.05144475	          0.05000112	          0.16354424	          0.25030391	          0.12946572	          0.05879713	          0.14646286	          0.14387819	          0.12923022	          0.05000092	          0.05000112	          0.05156400	          0.05000009	          0.05000121	          0.05000063	          0.56522112	          0.26706013	          0.16852164	          0.27583520	          0.48323242	          0.23537942	          0.05932159	          0.11058729	          0.10210604	          0.26572601	          0.09908063	          0.07073317	          0.29884649	          0.19611497	          0.10811631	          0.05000304	          0.05000085	          0.05000060	          0.06142558	          0.10009268	          0.10770164	          0.05007500	          0.05000875	          0.05001255	          0.05000293	          0.30330029	          0.08677039	          0.05001993	          0.05002493	          0.05001480	          0.05001283	          0.39106210	          0.62210091	          0.05003629	          0.05000340	          0.05529711	          0.22298518	          0.05473664	          0.05013998	          0.05007948	          0.28473890	          0.38933428	          0.30911141	          0.28671558	          0.28176214	          0.37053808	          0.05000014	          0.05796016	          0.12473891	          0.05000072	          0.05000020	          0.05000073	          0.05000011	          0.05000050	          0.05000034	
          1.70024434	         -2.92660549	          2.20068720	         -5.39158578	          2.13064937	          0.91837198	          0.00136804	         28.72555999	          3.83740159	         -1.75710471	        -17.16342646	         -1.43552180	          6.15954633	        -12.35463870	         -8.98056669	          5.21335001	         -1.44739521	         -4.86211051	          9.48892953	         -0.00058974	          1.54114378	         -0.87109269	         18.59850865	         -1.86199063	         -0.53321569	          2.05599866	         -5.86000253	        -13.45903076	          5.77448469	          4.55930734	        -13.46530075	         16.41967662	         16.67104101	         35.10883891	         86.51662706	         86.51662706	          0.05000004	          0.05000016	          0.10825506	          0.05000016	          0.05000019	          0.05000028	          0.08960114	          0.05000053	          0.17599450	          0.05000042	          0.05000867	          0.11385694	          0.25902234	          0.31034389	          0.21421390	          0.12724382	          0.05000213	          0.06869474	          0.12198720	          0.07614753	          0.11543730	          0.13042178	          0.05000024	          0.05000315	          0.38873293	          0.21097239	          0.10912217	          0.05932519	          0.14945898	          0.15122826	          0.12926544	          0.05000073	          0.05932601	          0.05000008	          0.05962779	          0.05002091	          0.05932353	          0.47640685	          0.28169831	          0.20439179	          0.23249208	          0.44692631	          0.19839317	          0.05000010	          0.09321013	          0.08606157	          0.22397120	          0.08351161	          0.05961857	          0.25188764	          0.16529852	          0.09112752	          0.05000808	          0.05000147	          0.05000168	          0.05177364	          0.08436513	          0.19549762	          0.05327300	          0.05941816	          0.05928653	          0.05932231	          0.25564142	          0.09899355	          0.05001256	          0.05000645	          0.05000432	          0.05000521	          0.32961262	          0.57603506	          0.05000095	          0.05928449	          0.05932138	          0.18794744	          0.12762585	          0.15285561	          0.14682968	          0.23999633	          0.32815612	          0.26053912	          0.24641503	          0.23748889	          0.31231571	          0.05000010	          0.05000034	          0.13460285	          0.05000031	          0.05000010	          0.05000045	          0.05719165	          0.05932374	          0.05662661	
          1.71143016	         -2.91936738	          2.29143166	         -5.64514147	          2.14775278	          0.91742998	          0.00118280	         27.96142617	          4.08788813	         -1.49772090	        -16.96641877	         -1.72728354	          5.94535787	        -12.83225749	        -10.99503993	          4.71817900	         -2.27922105	         -5.25765717	         10.36408303	         -0.09376485	          1.08028100	         -0.91754275	         19.81907899	         -1.64658356	         -0.74831563	          2.11013426	         -6.74243584	        -13.46562539	          5.56207304	          4.20863361	        -13.47206584	         16.67086737	         16.34686665	         36.22946046	         86.51662706	         86.51662706	          0.23421804	          0.23410269	          0.29467571	          0.35235286	          0.21642479	          0.20024410	          0.08788329	          0.05003091	          0.15032041	          0.08068048	          0.05000963	          0.09596613	          0.21832100	          0.26157814	          0.18055375	          0.12214479	          0.05000125	          0.05932438	          0.10282386	          0.13681358	          0.13875822	          0.10992838	          0.05924454	          0.05000226	          0.32764938	          0.17782152	          0.22326812	          0.05000318	          0.12597390	          0.12746518	          0.10895345	          0.05000375	          0.05000498	          0.05309655	          0.05025830	          0.05000114	          0.05000270	          0.56440698	          0.33909542	          0.17247056	          0.34438892	          0.51977946	          0.19154260	          0.06387012	          0.11314619	          0.07253827	          0.32908068	          0.07038904	          0.05025051	          0.31080610	          0.13932449	          0.07680828	          0.05000406	          0.05000064	          0.05000053	          0.05000050	          0.07110911	          0.16477847	          0.05157512	          0.05008229	          0.05000471	          0.05000263	          0.21802105	          0.08344443	          0.05000390	          0.05000952	          0.05000525	          0.05000343	          0.27781906	          0.54110695	          0.05000100	          0.05000189	          0.05000068	          0.15841438	          0.10757217	          0.12883742	          0.12375823	          0.20228440	          0.27659119	          0.21959919	          0.20769468	          0.20017142	          0.26324026	          0.05000005	          0.09362751	          0.15441518	          0.05000034	          0.05000014	          0.05000036	          0.05161518	          0.05000190	          0.05000014	
